<svg version="1.0" xmlns="http://www.w3.org/2000/svg" width="436.000000pt" height="173.000000pt" viewBox="0 0 436.000000 173.000000" preserveAspectRatio="xMidYMid meet">
	<metadata>
		Created by potrace 1.15, written by Peter Selinger 2001-2017
	</metadata>
	<g transform="translate(0.000000,173.000000) scale(0.100000,-0.100000)" fill="#000000" stroke="none">
		<path d="M662 1587 c-6 -7 -14 -154 -19 -377 l-8 -365 -101 -5 c-112 -6 -142
-18 -171 -73 -37 -71 -17 -151 51 -201 27 -21 39 -21 629 -24 558 -2 605 -1
637 15 99 51 110 197 19 261 -16 11 -52 19 -104 22 l-80 5 -8 360 c-7 286 -11
363 -22 374 -12 13 -15 13 -19 0 -6 -15 -13 -196 -22 -531 l-5 -208 -364 0
-365 0 0 214 c0 133 -4 217 -10 221 -6 4 -10 68 -10 160 0 148 -6 179 -28 152z
m996 -899 l-3 -23 -290 -2 c-159 -2 -296 1 -304 6 -8 5 -11 16 -8 25 6 14 41
16 307 16 l301 0 -3 -22z" />
		<path d="M1011 1290 c-63 -13 -124 -46 -170 -91 -46 -44 -49 -54 -21 -69 17
-9 26 -5 55 25 61 60 109 80 200 80 70 0 87 -4 134 -30 30 -16 67 -46 84 -67
25 -32 32 -35 48 -25 29 18 24 31 -31 86 -75 75 -196 111 -299 91z" />
		<path d="M990 1185 c-25 -8 -65 -31 -89 -52 -43 -37 -44 -37 -23 -54 21 -16
23 -16 57 17 42 40 102 58 161 49 43 -6 120 -54 130 -80 7 -18 44 -2 44 19 0
25 -78 85 -131 100 -63 19 -89 19 -149 1z" />
		<path d="M2753 1184 c-41 -20 -58 -66 -42 -112 21 -62 24 -62 489 -62 469 0
469 0 490 64 15 47 -9 100 -52 115 -20 7 -175 11 -442 11 -354 0 -415 -3 -443
-16z" />
		<path d="M2753 764 c-41 -20 -58 -66 -42 -112 21 -62 24 -62 489 -62 469 0
469 0 490 64 15 47 -9 100 -52 115 -20 7 -175 11 -442 11 -354 0 -415 -3 -443
-16z" />
		<path d="M2753 344 c-41 -20 -58 -66 -42 -112 21 -62 24 -62 489 -62 469 0
469 0 490 64 15 47 -9 100 -52 115 -20 7 -175 11 -442 11 -354 0 -415 -3 -443
-16z" />
	</g>
</svg>
