<svg width="176" height="167" viewBox="0 0 176 167" fill="none" xmlns="http://www.w3.org/2000/svg">
<path d="M43.9521 89V78.3359H47.2334C48.1709 78.3359 49.0083 78.5483 49.7456 78.9731C50.4878 79.3931 51.0664 79.9937 51.4814 80.7749C51.8965 81.5513 52.104 82.4351 52.104 83.4263V83.917C52.104 84.9082 51.8989 85.7896 51.4888 86.561C51.0835 87.3325 50.5098 87.9307 49.7676 88.3555C49.0254 88.7803 48.188 88.9951 47.2554 89H43.9521ZM46.1494 80.1157V87.2349H47.2114C48.0708 87.2349 48.7275 86.9541 49.1816 86.3926C49.6357 85.8311 49.8677 85.0278 49.8774 83.9829V83.4189C49.8774 82.335 49.6528 81.5146 49.2036 80.958C48.7544 80.3965 48.0977 80.1157 47.2334 80.1157H46.1494ZM62.4678 83.9097C62.4678 84.9595 62.2822 85.8799 61.9111 86.6709C61.54 87.4619 61.0078 88.0723 60.3145 88.502C59.626 88.9316 58.835 89.1465 57.9414 89.1465C57.0576 89.1465 56.269 88.9341 55.5757 88.5093C54.8823 88.0845 54.3452 87.479 53.9644 86.6929C53.5835 85.9019 53.3906 84.9937 53.3857 83.9683V83.4409C53.3857 82.3911 53.5737 81.4683 53.9497 80.6724C54.3306 79.8716 54.8652 79.2588 55.5537 78.834C56.2471 78.4043 57.0381 78.1895 57.9268 78.1895C58.8154 78.1895 59.604 78.4043 60.2925 78.834C60.9858 79.2588 61.5205 79.8716 61.8965 80.6724C62.2773 81.4683 62.4678 82.3887 62.4678 83.4336V83.9097ZM60.2412 83.4263C60.2412 82.3081 60.041 81.4585 59.6406 80.8774C59.2402 80.2964 58.6689 80.0059 57.9268 80.0059C57.1895 80.0059 56.6206 80.2939 56.2202 80.8701C55.8198 81.4414 55.6172 82.2812 55.6123 83.3896V83.9097C55.6123 84.9985 55.8125 85.8433 56.2129 86.4438C56.6133 87.0444 57.1895 87.3447 57.9414 87.3447C58.6787 87.3447 59.2451 87.0566 59.6406 86.4805C60.0361 85.8994 60.2363 85.0547 60.2412 83.9463V83.4263ZM72.3701 85.9238L73.8057 78.3359H75.9956L73.6299 89H71.418L69.6821 81.8662L67.9463 89H65.7344L63.3687 78.3359H65.5586L67.0015 85.9092L68.7593 78.3359H70.6196L72.3701 85.9238ZM85.8613 89H83.6641L79.3867 81.9834V89H77.1895V78.3359H79.3867L83.6714 85.3672V78.3359H85.8613V89ZM89.9775 87.2349H94.6431V89H87.7803V78.3359H89.9775V87.2349ZM104.201 83.9097C104.201 84.9595 104.016 85.8799 103.645 86.6709C103.273 87.4619 102.741 88.0723 102.048 88.502C101.359 88.9316 100.568 89.1465 99.6748 89.1465C98.791 89.1465 98.0024 88.9341 97.3091 88.5093C96.6157 88.0845 96.0786 87.479 95.6978 86.6929C95.3169 85.9019 95.124 84.9937 95.1191 83.9683V83.4409C95.1191 82.3911 95.3071 81.4683 95.6831 80.6724C96.064 79.8716 96.5986 79.2588 97.2871 78.834C97.9805 78.4043 98.7715 78.1895 99.6602 78.1895C100.549 78.1895 101.337 78.4043 102.026 78.834C102.719 79.2588 103.254 79.8716 103.63 80.6724C104.011 81.4683 104.201 82.3887 104.201 83.4336V83.9097ZM101.975 83.4263C101.975 82.3081 101.774 81.4585 101.374 80.8774C100.974 80.2964 100.402 80.0059 99.6602 80.0059C98.9229 80.0059 98.354 80.2939 97.9536 80.8701C97.5532 81.4414 97.3506 82.2812 97.3457 83.3896V83.9097C97.3457 84.9985 97.5459 85.8433 97.9463 86.4438C98.3467 87.0444 98.9229 87.3447 99.6748 87.3447C100.412 87.3447 100.979 87.0566 101.374 86.4805C101.77 85.8994 101.97 85.0547 101.975 83.9463V83.4263ZM111.657 86.8027H107.805L107.072 89H104.736L108.706 78.3359H110.742L114.733 89H112.397L111.657 86.8027ZM108.398 85.0229H111.064L109.724 81.0312L108.398 85.0229ZM115.729 89V78.3359H119.011C119.948 78.3359 120.786 78.5483 121.523 78.9731C122.265 79.3931 122.844 79.9937 123.259 80.7749C123.674 81.5513 123.881 82.4351 123.881 83.4263V83.917C123.881 84.9082 123.676 85.7896 123.266 86.561C122.861 87.3325 122.287 87.9307 121.545 88.3555C120.803 88.7803 119.965 88.9951 119.033 89H115.729ZM117.927 80.1157V87.2349H118.989C119.848 87.2349 120.505 86.9541 120.959 86.3926C121.413 85.8311 121.645 85.0278 121.655 83.9829V83.4189C121.655 82.335 121.43 81.5146 120.981 80.958C120.532 80.3965 119.875 80.1157 119.011 80.1157H117.927ZM71.3447 99.1689C71.3447 98.8564 71.234 98.6156 71.0127 98.4463C70.7946 98.277 70.3991 98.1061 69.8262 97.9336C69.2533 97.7611 68.7975 97.569 68.459 97.3574C67.8112 96.9505 67.4873 96.4199 67.4873 95.7656C67.4873 95.1927 67.7201 94.7207 68.1855 94.3496C68.6543 93.9785 69.2614 93.793 70.0068 93.793C70.5016 93.793 70.9427 93.8841 71.3301 94.0664C71.7174 94.2487 72.0218 94.5091 72.2432 94.8477C72.4645 95.1829 72.5752 95.5557 72.5752 95.9658H71.3447C71.3447 95.5947 71.2275 95.305 70.9932 95.0967C70.762 94.8851 70.43 94.7793 69.9971 94.7793C69.5934 94.7793 69.2793 94.8656 69.0547 95.0381C68.8333 95.2106 68.7227 95.4515 68.7227 95.7607C68.7227 96.0212 68.8431 96.2393 69.084 96.415C69.3249 96.5876 69.722 96.7568 70.2754 96.9229C70.8288 97.0856 71.2731 97.2728 71.6084 97.4844C71.9437 97.6927 72.1895 97.9336 72.3457 98.207C72.502 98.4772 72.5801 98.7946 72.5801 99.1592C72.5801 99.7516 72.3522 100.224 71.8965 100.575C71.444 100.924 70.8288 101.098 70.0508 101.098C69.5365 101.098 69.0628 101.003 68.6299 100.814C68.2002 100.622 67.8649 100.359 67.624 100.023C67.3864 99.6882 67.2676 99.2975 67.2676 98.8516H68.5029C68.5029 99.2552 68.6364 99.5677 68.9033 99.7891C69.1702 100.01 69.5527 100.121 70.0508 100.121C70.4805 100.121 70.8027 100.035 71.0176 99.8623C71.2357 99.6865 71.3447 99.4554 71.3447 99.1689ZM74.8994 98.3584V101H73.6641V93.8906H76.3838C77.1781 93.8906 77.8079 94.0973 78.2734 94.5107C78.7422 94.9242 78.9766 95.471 78.9766 96.1514C78.9766 96.848 78.7471 97.39 78.2881 97.7773C77.8324 98.1647 77.1927 98.3584 76.3691 98.3584H74.8994ZM74.8994 97.3672H76.3838C76.8232 97.3672 77.1585 97.2646 77.3896 97.0596C77.6208 96.8512 77.7363 96.5518 77.7363 96.1611C77.7363 95.777 77.6191 95.471 77.3848 95.2432C77.1504 95.012 76.8281 94.8932 76.418 94.8867H74.8994V97.3672ZM84.2158 97.8262H81.2959V100.014H84.709V101H80.0605V93.8906H84.6748V94.8867H81.2959V96.8496H84.2158V97.8262ZM89.8701 97.8262H86.9502V100.014H90.3633V101H85.7148V93.8906H90.3291V94.8867H86.9502V96.8496H89.8701V97.8262ZM91.3691 101V93.8906H93.4688C94.097 93.8906 94.6536 94.0306 95.1387 94.3105C95.627 94.5905 96.0046 94.9876 96.2715 95.502C96.5384 96.0163 96.6719 96.6055 96.6719 97.2695V97.626C96.6719 98.2998 96.5368 98.8923 96.2666 99.4033C95.9997 99.9144 95.6172 100.308 95.1191 100.585C94.6243 100.862 94.0563 101 93.415 101H91.3691ZM92.6045 94.8867V100.014H93.4102C94.0579 100.014 94.5544 99.8118 94.8994 99.4082C95.2477 99.0013 95.4251 98.4186 95.4316 97.6602V97.2646C95.4316 96.4932 95.264 95.904 94.9287 95.4971C94.5934 95.0902 94.1068 94.8867 93.4688 94.8867H92.6045Z" fill="#5D646E"/>
<path d="M159.02 110.977C159.784 111.28 160.65 110.908 160.941 110.139C165.282 98.672 166.865 86.3474 165.552 74.1517C164.186 61.4636 159.728 49.2976 152.564 38.7073C145.4 28.117 135.746 19.4217 124.438 13.3745C113.13 7.32733 100.508 4.11056 87.6672 4.0028C74.8259 3.89503 62.1517 6.89952 50.7423 12.756C39.3329 18.6126 29.5324 27.1446 22.1893 37.6131C14.8463 48.0817 10.1823 60.1712 8.60111 72.8346C7.08134 85.0063 8.45377 97.3556 12.5993 108.894C12.8772 109.667 13.7371 110.054 14.5064 109.765C15.2803 109.473 15.6686 108.609 15.3898 107.831C11.4191 96.7476 10.1066 84.8888 11.566 73.2001C13.0874 61.0156 17.5751 49.3833 24.6404 39.3107C31.7057 29.238 41.1356 21.0287 52.1135 15.3937C63.0914 9.75862 75.2863 6.86776 87.6419 6.97145C99.9976 7.07514 112.142 10.1703 123.022 15.9887C133.903 21.8072 143.192 30.1736 150.085 40.3634C156.978 50.5532 161.267 62.2592 162.581 74.4674C163.842 86.1789 162.328 98.014 158.169 109.029C157.877 109.803 158.251 110.673 159.02 110.977Z" fill="#C4C4C4"/>
<path d="M115.251 9.87083C116.088 7.94564 115.191 5.69965 113.219 4.98031C99.2047 -0.131816 83.9959 -1.34572 69.2808 1.51138C53.3126 4.61179 38.6666 12.3622 27.2522 23.7523C15.8378 35.1423 8.18467 49.6435 5.29055 65.3652C2.62325 79.8547 4.11231 94.7614 9.55369 108.431C10.3249 110.368 12.5619 111.218 14.4719 110.382C16.4199 109.529 17.2835 107.25 16.5098 105.269C11.7208 93.0086 10.4309 79.6698 12.8184 66.7001C15.4392 52.4632 22.3696 39.3315 32.706 29.0172C43.0424 18.7028 56.3052 11.6843 70.7654 8.87672C84.0057 6.30597 97.6873 7.37482 110.31 11.9298C112.247 12.6288 114.431 11.7596 115.251 9.87083Z" fill="url(#paint0_linear)"/>
<path d="M16.0488 116.968C16.0488 118.026 15.8682 118.812 15.5068 119.326C15.1455 119.84 14.5807 120.098 13.8125 120.098C13.054 120.098 12.4925 119.847 12.1279 119.346C11.7633 118.841 11.5745 118.089 11.5615 117.09V115.884C11.5615 114.839 11.7422 114.062 12.1035 113.555C12.4648 113.047 13.0312 112.793 13.8027 112.793C14.5677 112.793 15.1309 113.039 15.4922 113.53C15.8535 114.019 16.0391 114.774 16.0488 115.796V116.968ZM15.1455 115.732C15.1455 114.967 15.0381 114.411 14.8232 114.062C14.6084 113.711 14.2682 113.535 13.8027 113.535C13.3405 113.535 13.0036 113.709 12.792 114.058C12.5804 114.406 12.4714 114.941 12.4648 115.664V117.109C12.4648 117.878 12.5755 118.446 12.7969 118.813C13.0215 119.178 13.36 119.36 13.8125 119.36C14.2585 119.36 14.5889 119.188 14.8037 118.843C15.0218 118.498 15.1357 117.954 15.1455 117.212V115.732ZM149.159 120H148.251V113.979L146.43 114.648V113.828L149.018 112.856H149.159V120ZM156.264 116.968C156.264 118.026 156.083 118.812 155.722 119.326C155.36 119.84 154.796 120.098 154.027 120.098C153.269 120.098 152.707 119.847 152.343 119.346C151.978 118.841 151.789 118.089 151.776 117.09V115.884C151.776 114.839 151.957 114.062 152.318 113.555C152.68 113.047 153.246 112.793 154.018 112.793C154.783 112.793 155.346 113.039 155.707 113.53C156.068 114.019 156.254 114.774 156.264 115.796V116.968ZM155.36 115.732C155.36 114.967 155.253 114.411 155.038 114.062C154.823 113.711 154.483 113.535 154.018 113.535C153.555 113.535 153.218 113.709 153.007 114.058C152.795 114.406 152.686 114.941 152.68 115.664V117.109C152.68 117.878 152.79 118.446 153.012 118.813C153.236 119.178 153.575 119.36 154.027 119.36C154.473 119.36 154.804 119.188 155.019 118.843C155.237 118.498 155.351 117.954 155.36 117.212V115.732ZM161.879 116.968C161.879 118.026 161.698 118.812 161.337 119.326C160.976 119.84 160.411 120.098 159.643 120.098C158.884 120.098 158.323 119.847 157.958 119.346C157.593 118.841 157.405 118.089 157.392 117.09V115.884C157.392 114.839 157.572 114.062 157.934 113.555C158.295 113.047 158.861 112.793 159.633 112.793C160.398 112.793 160.961 113.039 161.322 113.53C161.684 114.019 161.869 114.774 161.879 115.796V116.968ZM160.976 115.732C160.976 114.967 160.868 114.411 160.653 114.062C160.438 113.711 160.098 113.535 159.633 113.535C159.171 113.535 158.834 113.709 158.622 114.058C158.41 114.406 158.301 114.941 158.295 115.664V117.109C158.295 117.878 158.406 118.446 158.627 118.813C158.852 119.178 159.19 119.36 159.643 119.36C160.089 119.36 160.419 119.188 160.634 118.843C160.852 118.498 160.966 117.954 160.976 117.212V115.732ZM165.717 116.187H167.699V117.041H165.717V119.287H164.809V117.041H162.826V116.187H164.809V114.111H165.717V116.187Z" fill="#5D646E"/>
<path d="M63.9932 119.46L65.8486 115.891H66.9131L64.4619 120.349V123H63.5244V120.349L61.0732 115.891H62.1475L63.9932 119.46ZM73.1533 119.675C73.1533 120.371 73.0361 120.98 72.8018 121.501C72.5674 122.019 72.2354 122.414 71.8057 122.688C71.376 122.961 70.8747 123.098 70.3018 123.098C69.7419 123.098 69.2454 122.961 68.8125 122.688C68.3796 122.411 68.0426 122.019 67.8018 121.511C67.5641 121 67.4421 120.409 67.4355 119.738V119.226C67.4355 118.542 67.5544 117.938 67.792 117.414C68.0296 116.89 68.3649 116.49 68.7979 116.213C69.234 115.933 69.7321 115.793 70.292 115.793C70.8617 115.793 71.363 115.931 71.7959 116.208C72.2321 116.481 72.5674 116.88 72.8018 117.404C73.0361 117.925 73.1533 118.532 73.1533 119.226V119.675ZM72.2207 119.216C72.2207 118.373 72.0514 117.727 71.7129 117.277C71.3743 116.825 70.9007 116.599 70.292 116.599C69.6995 116.599 69.2324 116.825 68.8906 117.277C68.5521 117.727 68.3779 118.352 68.3682 119.152V119.675C68.3682 120.492 68.5391 121.135 68.8809 121.604C69.2259 122.069 69.6995 122.302 70.3018 122.302C70.9072 122.302 71.376 122.082 71.708 121.643C72.04 121.2 72.2109 120.567 72.2207 119.743V119.216ZM79.5645 115.891V120.725C79.5612 121.395 79.3496 121.944 78.9297 122.37C78.513 122.797 77.9466 123.036 77.2305 123.088L76.9814 123.098C76.2035 123.098 75.5833 122.888 75.1211 122.468C74.6589 122.048 74.4245 121.47 74.418 120.734V115.891H75.3457V120.705C75.3457 121.219 75.4873 121.62 75.7705 121.906C76.0537 122.189 76.4574 122.331 76.9814 122.331C77.512 122.331 77.9173 122.189 78.1973 121.906C78.4805 121.623 78.6221 121.224 78.6221 120.71V115.891H79.5645ZM83.6514 120.124H81.9814V123H81.0391V115.891H83.3926C84.1934 115.891 84.8086 116.073 85.2383 116.438C85.6712 116.802 85.8877 117.333 85.8877 118.029C85.8877 118.472 85.7673 118.858 85.5264 119.187C85.2887 119.515 84.9567 119.761 84.5303 119.924L86.2002 122.941V123H85.1943L83.6514 120.124ZM81.9814 119.357H83.4219C83.8874 119.357 84.2568 119.237 84.5303 118.996C84.807 118.755 84.9453 118.433 84.9453 118.029C84.9453 117.59 84.8135 117.253 84.5498 117.019C84.2894 116.784 83.9118 116.665 83.417 116.662H81.9814V119.357ZM91.7812 119.831C90.9772 119.6 90.3913 119.317 90.0234 118.981C89.6589 118.643 89.4766 118.226 89.4766 117.731C89.4766 117.172 89.6995 116.709 90.1455 116.345C90.5947 115.977 91.1774 115.793 91.8936 115.793C92.3818 115.793 92.8164 115.887 93.1973 116.076C93.5814 116.265 93.8776 116.525 94.0859 116.857C94.2975 117.189 94.4033 117.552 94.4033 117.946H93.4609C93.4609 117.517 93.3242 117.18 93.0508 116.936C92.7773 116.688 92.3916 116.564 91.8936 116.564C91.4313 116.564 91.07 116.667 90.8096 116.872C90.5524 117.074 90.4238 117.355 90.4238 117.717C90.4238 118.007 90.5459 118.252 90.79 118.454C91.0374 118.653 91.4557 118.835 92.0449 119.001C92.6374 119.167 93.0996 119.351 93.4316 119.553C93.7669 119.751 94.0143 119.984 94.1738 120.251C94.3366 120.518 94.418 120.832 94.418 121.193C94.418 121.77 94.1934 122.232 93.7441 122.58C93.2949 122.925 92.6943 123.098 91.9424 123.098C91.4541 123.098 90.9984 123.005 90.5752 122.819C90.152 122.631 89.8249 122.373 89.5938 122.048C89.3659 121.722 89.252 121.353 89.252 120.939H90.1943C90.1943 121.369 90.3522 121.709 90.668 121.96C90.987 122.207 91.4118 122.331 91.9424 122.331C92.4372 122.331 92.8164 122.23 93.0801 122.028C93.3438 121.826 93.4756 121.551 93.4756 121.203C93.4756 120.855 93.3535 120.586 93.1094 120.397C92.8652 120.205 92.4225 120.017 91.7812 119.831ZM96.5615 120.217V123H95.624V115.891H98.2461C99.0241 115.891 99.6328 116.089 100.072 116.486C100.515 116.883 100.736 117.409 100.736 118.063C100.736 118.754 100.52 119.286 100.087 119.66C99.6572 120.031 99.0404 120.217 98.2363 120.217H96.5615ZM96.5615 119.45H98.2461C98.7474 119.45 99.1315 119.333 99.3984 119.099C99.6654 118.861 99.7988 118.519 99.7988 118.073C99.7988 117.65 99.6654 117.312 99.3984 117.058C99.1315 116.804 98.7653 116.672 98.2998 116.662H96.5615V119.45ZM105.951 119.714H102.87V122.233H106.449V123H101.933V115.891H106.4V116.662H102.87V118.947H105.951V119.714ZM111.635 119.714H108.554V122.233H112.133V123H107.616V115.891H112.084V116.662H108.554V118.947H111.635V119.714ZM113.3 123V115.891H115.307C115.925 115.891 116.472 116.027 116.947 116.301C117.423 116.574 117.789 116.963 118.046 117.468C118.306 117.972 118.438 118.552 118.441 119.206V119.66C118.441 120.331 118.311 120.918 118.051 121.423C117.794 121.927 117.424 122.315 116.942 122.585C116.464 122.855 115.906 122.993 115.268 123H113.3ZM114.237 116.662V122.233H115.224C115.946 122.233 116.508 122.009 116.908 121.56C117.312 121.11 117.514 120.471 117.514 119.641V119.226C117.514 118.418 117.323 117.792 116.942 117.346C116.565 116.896 116.028 116.669 115.331 116.662H114.237Z" fill="#5D646E"/>
<path d="M55.2334 56.6552H51V40.3369L45.9463 41.9043V38.4619L54.7793 35.2978H55.2334V56.6552ZM62.8066 46.167L64.0371 35.3271H75.9902V38.8574H67.5088L66.9814 43.4424C67.9873 42.9052 69.0566 42.6367 70.1895 42.6367C72.2207 42.6367 73.8125 43.2666 74.9648 44.5263C76.1172 45.7861 76.6934 47.5488 76.6934 49.8144C76.6934 51.1914 76.4004 52.4267 75.8145 53.5205C75.2383 54.6045 74.4082 55.4492 73.3242 56.0547C72.2402 56.6504 70.9609 56.9482 69.4863 56.9482C68.1973 56.9482 67.001 56.6894 65.8975 56.1718C64.7939 55.6445 63.9199 54.9072 63.2754 53.9599C62.6406 53.0127 62.3037 51.9336 62.2646 50.7226H66.4541C66.542 51.6113 66.8496 52.3047 67.377 52.8027C67.9141 53.291 68.6123 53.5351 69.4717 53.5351C70.4287 53.5351 71.166 53.1933 71.6836 52.5097C72.2012 51.8164 72.46 50.8398 72.46 49.58C72.46 48.3691 72.1621 47.4414 71.5664 46.7968C70.9707 46.1523 70.126 45.83 69.0322 45.83C68.0264 45.83 67.2109 46.0937 66.5859 46.6211L66.1758 47.0019L62.8066 46.167ZM79.7988 54.5752C79.7988 53.9013 80.0234 53.3545 80.4727 52.9345C80.9316 52.5146 81.5029 52.3047 82.1865 52.3047C82.8799 52.3047 83.4512 52.5146 83.9004 52.9345C84.3594 53.3545 84.5889 53.9013 84.5889 54.5752C84.5889 55.2392 84.3643 55.7812 83.915 56.2011C83.4658 56.6113 82.8896 56.8164 82.1865 56.8164C81.4932 56.8164 80.9219 56.6113 80.4727 56.2011C80.0234 55.7812 79.7988 55.2392 79.7988 54.5752ZM99.0034 56.6552H87.7954V54.4316L93.085 48.7939C93.8112 48.0003 94.3465 47.3077 94.6909 46.7163C95.0428 46.1248 95.2188 45.5633 95.2188 45.0317C95.2188 44.3055 95.0353 43.7365 94.6685 43.3247C94.3016 42.9054 93.7775 42.6958 93.0962 42.6958C92.3625 42.6958 91.7822 42.9503 91.3555 43.4594C90.9362 43.9611 90.7266 44.6237 90.7266 45.4472H87.4697C87.4697 44.4515 87.7056 43.5418 88.1772 42.7182C88.6564 41.8947 89.3302 41.2508 90.1987 40.7866C91.0672 40.3149 92.0518 40.0791 93.1523 40.0791C94.8369 40.0791 96.1434 40.4834 97.0718 41.292C98.0076 42.1006 98.4756 43.2423 98.4756 44.7173C98.4756 45.5258 98.266 46.3494 97.8467 47.188C97.4274 48.0265 96.7087 49.0036 95.6904 50.1191L91.9731 54.0385H99.0034V56.6552ZM110.604 50.5009H112.458V53.1176H110.604V56.6552H107.359V53.1176H100.654L100.508 51.0737L107.325 40.3037H110.604V50.5009ZM103.743 50.5009H107.359V44.7285L107.146 45.0991L103.743 50.5009Z" fill="url(#paint1_linear)"/>
<path d="M59.9111 136H58.5V130.561L56.8154 131.083V129.936L59.7598 128.881H59.9111V136ZM62.4355 132.504L62.8457 128.891H66.8301V130.067H64.0029L63.8271 131.596C64.1624 131.417 64.5189 131.327 64.8965 131.327C65.5736 131.327 66.1042 131.537 66.4883 131.957C66.8724 132.377 67.0645 132.965 67.0645 133.72C67.0645 134.179 66.9668 134.59 66.7715 134.955C66.5794 135.316 66.3027 135.598 65.9414 135.8C65.5801 135.998 65.1536 136.098 64.6621 136.098C64.2324 136.098 63.8337 136.011 63.4658 135.839C63.098 135.663 62.8066 135.417 62.5918 135.102C62.3802 134.786 62.2679 134.426 62.2549 134.022H63.6514C63.6807 134.319 63.7832 134.55 63.959 134.716C64.138 134.879 64.3708 134.96 64.6572 134.96C64.9762 134.96 65.222 134.846 65.3945 134.618C65.5671 134.387 65.6533 134.062 65.6533 133.642C65.6533 133.238 65.554 132.929 65.3555 132.714C65.1569 132.499 64.8753 132.392 64.5107 132.392C64.1755 132.392 63.9036 132.479 63.6953 132.655L63.5586 132.782L62.4355 132.504ZM68.0996 135.307C68.0996 135.082 68.1745 134.9 68.3242 134.76C68.4772 134.62 68.6676 134.55 68.8955 134.55C69.1266 134.55 69.3171 134.62 69.4668 134.76C69.6198 134.9 69.6963 135.082 69.6963 135.307C69.6963 135.528 69.6214 135.709 69.4717 135.849C69.3219 135.985 69.1299 136.054 68.8955 136.054C68.6644 136.054 68.474 135.985 68.3242 135.849C68.1745 135.709 68.0996 135.528 68.0996 135.307ZM75.751 136H70.8779V135.033L73.1777 132.582C73.4935 132.237 73.7262 131.936 73.876 131.679C74.029 131.422 74.1055 131.177 74.1055 130.946C74.1055 130.631 74.0257 130.383 73.8662 130.204C73.7067 130.022 73.4788 129.931 73.1826 129.931C72.8636 129.931 72.6113 130.041 72.4258 130.263C72.2435 130.481 72.1523 130.769 72.1523 131.127H70.7363C70.7363 130.694 70.8389 130.299 71.0439 129.94C71.2523 129.582 71.5452 129.302 71.9229 129.101C72.3005 128.896 72.7285 128.793 73.207 128.793C73.9395 128.793 74.5075 128.969 74.9111 129.32C75.318 129.672 75.5215 130.168 75.5215 130.81C75.5215 131.161 75.4303 131.519 75.248 131.884C75.0658 132.248 74.7533 132.673 74.3105 133.158L72.6943 134.862H75.751V136ZM80.7949 133.324H81.6006V134.462H80.7949V136H79.3838V134.462H76.4688L76.4053 133.573L79.3691 128.891H80.7949V133.324ZM77.8115 133.324H79.3838V130.814L79.291 130.976L77.8115 133.324ZM86.918 128.891L88.7441 134.047L90.5605 128.891H92.4844V136H91.0146V134.057L91.1611 130.702L89.2422 136H88.2363L86.3223 130.707L86.4688 134.057V136H85.0039V128.891H86.918ZM93.7637 136V128.891H96.2539C97.1165 128.891 97.7708 129.057 98.2168 129.389C98.6628 129.717 98.8857 130.201 98.8857 130.839C98.8857 131.187 98.7962 131.495 98.6172 131.762C98.4382 132.025 98.1891 132.219 97.8701 132.343C98.2347 132.434 98.5212 132.618 98.7295 132.895C98.9411 133.171 99.0469 133.51 99.0469 133.91C99.0469 134.594 98.8288 135.111 98.3926 135.463C97.9564 135.814 97.3346 135.993 96.5273 136H93.7637ZM95.2285 132.904V134.823H96.4834C96.8285 134.823 97.097 134.742 97.2891 134.579C97.4844 134.413 97.582 134.185 97.582 133.896C97.582 133.244 97.2451 132.914 96.5713 132.904H95.2285ZM95.2285 131.869H96.3125C97.0514 131.856 97.4209 131.562 97.4209 130.985C97.4209 130.663 97.3265 130.432 97.1377 130.292C96.9521 130.149 96.6576 130.077 96.2539 130.077H95.2285V131.869ZM101.615 133.495V136H100.15V128.891H102.924C103.458 128.891 103.926 128.988 104.33 129.184C104.737 129.379 105.049 129.657 105.268 130.019C105.486 130.377 105.595 130.785 105.595 131.244C105.595 131.941 105.355 132.491 104.877 132.895C104.402 133.295 103.743 133.495 102.899 133.495H101.615ZM101.615 132.309H102.924C103.311 132.309 103.606 132.217 103.808 132.035C104.013 131.853 104.115 131.592 104.115 131.254C104.115 130.906 104.013 130.624 103.808 130.409C103.603 130.194 103.319 130.084 102.958 130.077H101.615V132.309ZM110.292 134.135C110.292 133.858 110.194 133.646 109.999 133.5C109.804 133.35 109.452 133.194 108.944 133.031C108.437 132.865 108.035 132.702 107.738 132.543C106.931 132.107 106.527 131.519 106.527 130.78C106.527 130.396 106.635 130.054 106.85 129.755C107.068 129.452 107.379 129.216 107.782 129.047C108.189 128.878 108.645 128.793 109.149 128.793C109.657 128.793 110.11 128.886 110.507 129.071C110.904 129.254 111.212 129.512 111.43 129.848C111.651 130.183 111.762 130.564 111.762 130.99H110.297C110.297 130.665 110.194 130.412 109.989 130.233C109.784 130.051 109.496 129.96 109.125 129.96C108.767 129.96 108.489 130.036 108.29 130.189C108.091 130.339 107.992 130.538 107.992 130.785C107.992 131.016 108.108 131.21 108.339 131.366C108.573 131.522 108.917 131.669 109.369 131.806C110.202 132.056 110.81 132.367 111.19 132.738C111.571 133.109 111.762 133.572 111.762 134.125C111.762 134.74 111.529 135.224 111.063 135.575C110.598 135.924 109.971 136.098 109.184 136.098C108.637 136.098 108.139 135.998 107.689 135.8C107.24 135.598 106.897 135.323 106.659 134.975C106.425 134.626 106.308 134.223 106.308 133.764H107.777C107.777 134.548 108.246 134.94 109.184 134.94C109.532 134.94 109.804 134.87 109.999 134.73C110.194 134.587 110.292 134.389 110.292 134.135Z" fill="#5D646E"/>
<path d="M55.5488 58.8906L57.375 64.0469L59.1914 58.8906H61.1152V66H59.6455V64.0566L59.792 60.7021L57.873 66H56.8672L54.9531 60.707L55.0996 64.0566V66H53.6348V58.8906H55.5488ZM62.3945 66V58.8906H64.8848C65.7474 58.8906 66.4017 59.0566 66.8477 59.3887C67.2936 59.7174 67.5166 60.2008 67.5166 60.8389C67.5166 61.1872 67.4271 61.4948 67.248 61.7617C67.069 62.0254 66.82 62.2191 66.501 62.3428C66.8656 62.4339 67.152 62.6178 67.3604 62.8945C67.5719 63.1712 67.6777 63.5098 67.6777 63.9102C67.6777 64.5938 67.4596 65.1113 67.0234 65.4629C66.5872 65.8145 65.9655 65.9935 65.1582 66H62.3945ZM63.8594 62.9043V64.8232H65.1143C65.4593 64.8232 65.7279 64.7419 65.9199 64.5791C66.1152 64.4131 66.2129 64.1852 66.2129 63.8955C66.2129 63.2445 65.876 62.9141 65.2021 62.9043H63.8594ZM63.8594 61.8691H64.9434C65.6823 61.8561 66.0518 61.5615 66.0518 60.9854C66.0518 60.6631 65.9574 60.432 65.7686 60.292C65.583 60.1488 65.2884 60.0771 64.8848 60.0771H63.8594V61.8691ZM75.501 63.9336C75.501 64.5768 75.3538 65.0951 75.0596 65.4883C74.7653 65.8815 74.3669 66.0781 73.8643 66.0781C73.3512 66.0781 72.9476 65.9154 72.6533 65.5898V67.625H71.9307V61.7734H72.5908L72.626 62.2422C72.9202 61.8776 73.3291 61.6953 73.8525 61.6953C74.3604 61.6953 74.7614 61.8867 75.0557 62.2695C75.3525 62.6523 75.501 63.1849 75.501 63.8672V63.9336ZM74.7783 63.8516C74.7783 63.375 74.6768 62.9987 74.4736 62.7227C74.2705 62.4466 73.9919 62.3086 73.6377 62.3086C73.2002 62.3086 72.8721 62.5026 72.6533 62.8906V64.9102C72.8695 65.2956 73.2002 65.4883 73.6455 65.4883C73.9919 65.4883 74.2666 65.3516 74.4697 65.0781C74.6755 64.8021 74.7783 64.3932 74.7783 63.8516ZM78.1768 66.0781C77.6038 66.0781 77.1377 65.8906 76.7783 65.5156C76.4189 65.138 76.2393 64.6341 76.2393 64.0039V63.8711C76.2393 63.4518 76.3187 63.0781 76.4775 62.75C76.639 62.4193 76.863 62.1615 77.1494 61.9766C77.4385 61.7891 77.751 61.6953 78.0869 61.6953C78.6364 61.6953 79.0635 61.8763 79.3682 62.2383C79.6729 62.6003 79.8252 63.1185 79.8252 63.793V64.0938H76.9619C76.9723 64.5104 77.0934 64.8477 77.3252 65.1055C77.5596 65.3607 77.8564 65.4883 78.2158 65.4883C78.471 65.4883 78.6872 65.4362 78.8643 65.332C79.0413 65.2279 79.1963 65.0898 79.3291 64.918L79.7705 65.2617C79.4163 65.806 78.8851 66.0781 78.1768 66.0781ZM78.0869 62.2891C77.7952 62.2891 77.5505 62.3958 77.3525 62.6094C77.1546 62.8203 77.0322 63.1172 76.9854 63.5H79.1025V63.4453C79.0817 63.0781 78.9827 62.7943 78.8057 62.5938C78.6286 62.3906 78.389 62.2891 78.0869 62.2891ZM82.708 62.4219C82.5986 62.4036 82.4801 62.3945 82.3525 62.3945C81.8786 62.3945 81.557 62.5964 81.3877 63V66H80.665V61.7734H81.3682L81.3799 62.2617C81.6169 61.8841 81.9528 61.6953 82.3877 61.6953C82.5283 61.6953 82.6351 61.7135 82.708 61.75V62.4219ZM87.8213 64.8789C87.8213 64.6836 87.7471 64.5326 87.5986 64.4258C87.4528 64.3164 87.1963 64.2227 86.8291 64.1445C86.4645 64.0664 86.1742 63.9727 85.958 63.8633C85.7445 63.7539 85.5856 63.6237 85.4814 63.4727C85.3799 63.3216 85.3291 63.1419 85.3291 62.9336C85.3291 62.5872 85.4749 62.2943 85.7666 62.0547C86.0609 61.8151 86.4359 61.6953 86.8916 61.6953C87.3708 61.6953 87.7588 61.819 88.0557 62.0664C88.3551 62.3138 88.5049 62.6302 88.5049 63.0156H87.7783C87.7783 62.8177 87.6937 62.6471 87.5244 62.5039C87.3577 62.3607 87.1468 62.2891 86.8916 62.2891C86.6286 62.2891 86.4229 62.3464 86.2744 62.4609C86.126 62.5755 86.0518 62.7253 86.0518 62.9102C86.0518 63.0846 86.1208 63.2161 86.2588 63.3047C86.3968 63.3932 86.6455 63.4779 87.0049 63.5586C87.3669 63.6393 87.6598 63.7357 87.8838 63.8477C88.1077 63.9596 88.2731 64.0951 88.3799 64.2539C88.4893 64.4102 88.5439 64.6016 88.5439 64.8281C88.5439 65.2057 88.3929 65.5091 88.0908 65.7383C87.7887 65.9648 87.3968 66.0781 86.915 66.0781C86.5765 66.0781 86.277 66.0182 86.0166 65.8984C85.7562 65.7786 85.5518 65.612 85.4033 65.3984C85.2575 65.1823 85.1846 64.9492 85.1846 64.6992H85.9072C85.9202 64.9414 86.0166 65.1341 86.1963 65.2773C86.3786 65.418 86.6182 65.4883 86.915 65.4883C87.1885 65.4883 87.4072 65.4336 87.5713 65.3242C87.738 65.2122 87.8213 65.0638 87.8213 64.8789ZM91.2393 66.0781C90.6663 66.0781 90.2002 65.8906 89.8408 65.5156C89.4814 65.138 89.3018 64.6341 89.3018 64.0039V63.8711C89.3018 63.4518 89.3812 63.0781 89.54 62.75C89.7015 62.4193 89.9255 62.1615 90.2119 61.9766C90.501 61.7891 90.8135 61.6953 91.1494 61.6953C91.6989 61.6953 92.126 61.8763 92.4307 62.2383C92.7354 62.6003 92.8877 63.1185 92.8877 63.793V64.0938H90.0244C90.0348 64.5104 90.1559 64.8477 90.3877 65.1055C90.6221 65.3607 90.9189 65.4883 91.2783 65.4883C91.5335 65.4883 91.7497 65.4362 91.9268 65.332C92.1038 65.2279 92.2588 65.0898 92.3916 64.918L92.833 65.2617C92.4788 65.806 91.9476 66.0781 91.2393 66.0781ZM91.1494 62.2891C90.8577 62.2891 90.613 62.3958 90.415 62.6094C90.2171 62.8203 90.0947 63.1172 90.0479 63.5H92.165V63.4453C92.1442 63.0781 92.0452 62.7943 91.8682 62.5938C91.6911 62.3906 91.4515 62.2891 91.1494 62.2891ZM95.4229 65.4883C95.6807 65.4883 95.9059 65.4102 96.0986 65.2539C96.2913 65.0977 96.3981 64.9023 96.4189 64.668H97.1025C97.0895 64.9102 97.0062 65.1406 96.8525 65.3594C96.6989 65.5781 96.4932 65.7526 96.2354 65.8828C95.9801 66.013 95.7093 66.0781 95.4229 66.0781C94.8473 66.0781 94.389 65.8867 94.0479 65.5039C93.7093 65.1185 93.54 64.5924 93.54 63.9258V63.8047C93.54 63.3932 93.6156 63.0273 93.7666 62.707C93.9176 62.3867 94.1338 62.138 94.415 61.9609C94.6989 61.7839 95.0335 61.6953 95.4189 61.6953C95.8929 61.6953 96.2861 61.8372 96.5986 62.1211C96.9137 62.4049 97.0817 62.7734 97.1025 63.2266H96.4189C96.3981 62.9531 96.2939 62.7292 96.1064 62.5547C95.9215 62.3776 95.6924 62.2891 95.4189 62.2891C95.0518 62.2891 94.7666 62.4219 94.5635 62.6875C94.363 62.9505 94.2627 63.332 94.2627 63.832V63.9688C94.2627 64.4557 94.363 64.8307 94.5635 65.0938C94.764 65.3568 95.0505 65.4883 95.4229 65.4883ZM97.7236 63.8477C97.7236 63.4336 97.8044 63.0612 97.9658 62.7305C98.1299 62.3997 98.3564 62.1445 98.6455 61.9648C98.9372 61.7852 99.2692 61.6953 99.6416 61.6953C100.217 61.6953 100.682 61.8945 101.036 62.293C101.393 62.6914 101.571 63.2214 101.571 63.8828V63.9336C101.571 64.3451 101.492 64.7148 101.333 65.043C101.177 65.3685 100.951 65.6224 100.657 65.8047C100.366 65.987 100.03 66.0781 99.6494 66.0781C99.0765 66.0781 98.6117 65.8789 98.2549 65.4805C97.9007 65.082 97.7236 64.5547 97.7236 63.8984V63.8477ZM98.4502 63.9336C98.4502 64.4023 98.5583 64.7786 98.7744 65.0625C98.9932 65.3464 99.2848 65.4883 99.6494 65.4883C100.017 65.4883 100.308 65.3451 100.524 65.0586C100.741 64.7695 100.849 64.3659 100.849 63.8477C100.849 63.3841 100.738 63.0091 100.517 62.7227C100.298 62.4336 100.006 62.2891 99.6416 62.2891C99.2848 62.2891 98.9971 62.431 98.7783 62.7148C98.5596 62.9987 98.4502 63.4049 98.4502 63.9336ZM103.161 61.7734L103.185 62.3047C103.507 61.8984 103.929 61.6953 104.45 61.6953C105.343 61.6953 105.794 62.1992 105.802 63.207V66H105.079V63.2031C105.076 62.8984 105.006 62.6732 104.868 62.5273C104.733 62.3815 104.521 62.3086 104.231 62.3086C103.997 62.3086 103.791 62.3711 103.614 62.4961C103.437 62.6211 103.299 62.7852 103.2 62.9883V66H102.478V61.7734H103.161ZM106.716 63.8516C106.716 63.2031 106.869 62.6823 107.177 62.2891C107.484 61.8932 107.886 61.6953 108.384 61.6953C108.879 61.6953 109.271 61.8646 109.56 62.2031V60H110.282V66H109.618L109.583 65.5469C109.294 65.901 108.892 66.0781 108.376 66.0781C107.886 66.0781 107.487 65.8776 107.177 65.4766C106.869 65.0755 106.716 64.5521 106.716 63.9062V63.8516ZM107.438 63.9336C107.438 64.4128 107.537 64.7878 107.735 65.0586C107.933 65.3294 108.207 65.4648 108.556 65.4648C109.014 65.4648 109.349 65.2591 109.56 64.8477V62.9062C109.343 62.5078 109.011 62.3086 108.563 62.3086C108.209 62.3086 107.933 62.4453 107.735 62.7188C107.537 62.9922 107.438 63.3971 107.438 63.9336Z" fill="#5D646E"/>
<path d="M55.9324 118.466C55.9324 122.037 53.0374 124.932 49.4662 124.932C45.895 124.932 43 122.037 43 118.466C43 114.895 45.895 112 49.4662 112C53.0374 112 55.9324 114.895 55.9324 118.466Z" fill="url(#paint2_linear)"/>
<defs>
<linearGradient id="paint0_linear" x1="85" y1="0" x2="85" y2="159" gradientUnits="userSpaceOnUse">
<stop stop-color="#3D6BA6"/>
<stop offset="0.583333" stop-color="#31A8C3"/>
</linearGradient>
<linearGradient id="paint1_linear" x1="84.6486" y1="28.6552" x2="84.6486" y2="69.8039" gradientUnits="userSpaceOnUse">
<stop stop-color="#3E6CA6"/>
<stop offset="1" stop-color="#31A8C3"/>
</linearGradient>
<linearGradient id="paint2_linear" x1="49.4662" y1="112" x2="49.4662" y2="124.932" gradientUnits="userSpaceOnUse">
<stop stop-color="#3E6CA6"/>
<stop offset="1" stop-color="#3497BB"/>
</linearGradient>
</defs>
</svg>
