<svg width="162" height="155" viewBox="0 0 162 155" fill="none" xmlns="http://www.w3.org/2000/svg">
<path d="M149.401 108.495C150.129 108.808 150.974 108.472 151.273 107.738C155.792 96.6371 157.621 84.6166 156.598 72.6613C155.535 60.2291 151.422 48.2509 144.624 37.7878C137.826 27.3248 128.553 18.6997 117.625 12.6767C106.697 6.65366 94.453 3.41858 81.9765 3.25799C69.4999 3.09741 57.1764 6.01628 46.0973 11.7561C35.0183 17.4958 25.5258 25.8793 18.4607 36.164C11.3956 46.4486 6.97593 58.317 5.59321 70.7177C4.26351 82.6428 5.78174 94.7063 10.0142 105.919C10.294 106.661 11.1301 107.019 11.866 106.725C12.6019 106.431 12.9589 105.597 12.6797 104.855C8.62181 94.0806 7.16758 82.4918 8.44498 71.0357C9.77541 59.1039 14.0279 47.6844 20.8259 37.7887C27.6238 27.893 36.7573 19.8266 47.4173 14.3039C58.0773 8.78117 69.9349 5.97269 81.9396 6.1272C93.9443 6.28171 105.726 9.39445 116.24 15.1897C126.754 20.9849 135.677 29.2838 142.218 39.3512C148.759 49.4186 152.716 60.9437 153.739 72.9057C154.721 84.3909 152.969 95.9385 148.635 106.605C148.337 107.339 148.673 108.183 149.401 108.495Z" fill="#C4C4C4"/>
<path d="M106.99 9.08826C107.769 7.22494 106.875 5.07611 104.967 4.41227C91.1486 -0.396741 76.199 -1.30375 61.8372 1.83393C46.2751 5.23385 32.1499 13.2196 21.3625 24.7166C10.575 36.2137 3.6429 50.6702 1.49894 66.141C-0.480297 80.4232 1.70879 94.9369 7.77538 108.016C8.61771 109.832 10.8051 110.531 12.5945 109.634C14.4277 108.714 15.1417 106.474 14.2915 104.608C8.94579 92.8751 7.0314 79.8908 8.80239 67.1114C10.7439 53.1017 17.0213 40.0104 26.79 29.5992C36.5587 19.188 49.3498 11.9564 63.4422 8.87757C76.3692 6.05337 89.822 6.84778 102.272 11.1339C104.142 11.7778 106.227 10.9131 106.99 9.08826Z" fill="url(#paint0_linear)"/>
<path d="M14.5104 118.695C14.5104 119.753 14.3297 120.539 13.9684 121.053C13.6071 121.568 13.0423 121.825 12.274 121.825C11.5156 121.825 10.9541 121.574 10.5895 121.073C10.2249 120.568 10.0361 119.816 10.0231 118.817V117.611C10.0231 116.566 10.2037 115.79 10.5651 115.282C10.9264 114.774 11.4928 114.52 12.2643 114.52C13.0293 114.52 13.5924 114.766 13.9537 115.258C14.3151 115.746 14.5006 116.501 14.5104 117.523V118.695ZM13.6071 117.46C13.6071 116.695 13.4996 116.138 13.2848 115.79C13.0699 115.438 12.7298 115.262 12.2643 115.262C11.802 115.262 11.4651 115.437 11.2535 115.785C11.042 116.133 10.9329 116.669 10.9264 117.391V118.837C10.9264 119.605 11.0371 120.173 11.2584 120.541C11.483 120.905 11.8216 121.088 12.274 121.088C12.72 121.088 13.0504 120.915 13.2653 120.57C13.4834 120.225 13.5973 119.681 13.6071 118.939V117.46ZM140.179 121.727H139.271V115.707L137.45 116.376V115.555L140.038 114.584H140.179V121.727ZM147.284 118.695C147.284 119.753 147.103 120.539 146.742 121.053C146.38 121.568 145.816 121.825 145.047 121.825C144.289 121.825 143.727 121.574 143.363 121.073C142.998 120.568 142.81 119.816 142.797 118.817V117.611C142.797 116.566 142.977 115.79 143.339 115.282C143.7 114.774 144.266 114.52 145.038 114.52C145.803 114.52 146.366 114.766 146.727 115.258C147.089 115.746 147.274 116.501 147.284 117.523V118.695ZM146.38 117.46C146.38 116.695 146.273 116.138 146.058 115.79C145.843 115.438 145.503 115.262 145.038 115.262C144.575 115.262 144.239 115.437 144.027 115.785C143.815 116.133 143.706 116.669 143.7 117.391V118.837C143.7 119.605 143.811 120.173 144.032 120.541C144.256 120.905 144.595 121.088 145.047 121.088C145.493 121.088 145.824 120.915 146.039 120.57C146.257 120.225 146.371 119.681 146.38 118.939V117.46ZM152.899 118.695C152.899 119.753 152.718 120.539 152.357 121.053C151.996 121.568 151.431 121.825 150.663 121.825C149.904 121.825 149.343 121.574 148.978 121.073C148.614 120.568 148.425 119.816 148.412 118.817V117.611C148.412 116.566 148.592 115.79 148.954 115.282C149.315 114.774 149.881 114.52 150.653 114.52C151.418 114.52 151.981 114.766 152.342 115.258C152.704 115.746 152.889 116.501 152.899 117.523V118.695ZM151.996 117.46C151.996 116.695 151.888 116.138 151.673 115.79C151.459 115.438 151.118 115.262 150.653 115.262C150.191 115.262 149.854 115.437 149.642 115.785C149.431 116.133 149.322 116.669 149.315 117.391V118.837C149.315 119.605 149.426 120.173 149.647 120.541C149.872 120.905 150.21 121.088 150.663 121.088C151.109 121.088 151.439 120.915 151.654 120.57C151.872 120.225 151.986 119.681 151.996 118.939V117.46ZM156.737 117.914H158.719V118.768H156.737V121.014H155.829V118.768H153.846V117.914H155.829V115.839H156.737V117.914Z" fill="#5D646E"/>
<path d="M63.9932 120.46L65.8486 116.891H66.9131L64.4619 121.349V124H63.5244V121.349L61.0732 116.891H62.1475L63.9932 120.46ZM73.1533 120.675C73.1533 121.371 73.0361 121.98 72.8018 122.501C72.5674 123.019 72.2354 123.414 71.8057 123.688C71.376 123.961 70.8747 124.098 70.3018 124.098C69.7419 124.098 69.2454 123.961 68.8125 123.688C68.3796 123.411 68.0426 123.019 67.8018 122.511C67.5641 122 67.4421 121.409 67.4355 120.738V120.226C67.4355 119.542 67.5544 118.938 67.792 118.414C68.0296 117.89 68.3649 117.49 68.7979 117.213C69.234 116.933 69.7321 116.793 70.292 116.793C70.8617 116.793 71.363 116.931 71.7959 117.208C72.2321 117.481 72.5674 117.88 72.8018 118.404C73.0361 118.925 73.1533 119.532 73.1533 120.226V120.675ZM72.2207 120.216C72.2207 119.373 72.0514 118.727 71.7129 118.277C71.3743 117.825 70.9007 117.599 70.292 117.599C69.6995 117.599 69.2324 117.825 68.8906 118.277C68.5521 118.727 68.3779 119.352 68.3682 120.152V120.675C68.3682 121.492 68.5391 122.135 68.8809 122.604C69.2259 123.069 69.6995 123.302 70.3018 123.302C70.9072 123.302 71.376 123.082 71.708 122.643C72.04 122.2 72.2109 121.567 72.2207 120.743V120.216ZM79.5645 116.891V121.725C79.5612 122.395 79.3496 122.944 78.9297 123.37C78.513 123.797 77.9466 124.036 77.2305 124.088L76.9814 124.098C76.2035 124.098 75.5833 123.888 75.1211 123.468C74.6589 123.048 74.4245 122.47 74.418 121.734V116.891H75.3457V121.705C75.3457 122.219 75.4873 122.62 75.7705 122.906C76.0537 123.189 76.4574 123.331 76.9814 123.331C77.512 123.331 77.9173 123.189 78.1973 122.906C78.4805 122.623 78.6221 122.224 78.6221 121.71V116.891H79.5645ZM83.6514 121.124H81.9814V124H81.0391V116.891H83.3926C84.1934 116.891 84.8086 117.073 85.2383 117.438C85.6712 117.802 85.8877 118.333 85.8877 119.029C85.8877 119.472 85.7673 119.858 85.5264 120.187C85.2887 120.515 84.9567 120.761 84.5303 120.924L86.2002 123.941V124H85.1943L83.6514 121.124ZM81.9814 120.357H83.4219C83.8874 120.357 84.2568 120.237 84.5303 119.996C84.807 119.755 84.9453 119.433 84.9453 119.029C84.9453 118.59 84.8135 118.253 84.5498 118.019C84.2894 117.784 83.9118 117.665 83.417 117.662H81.9814V120.357ZM91.7812 120.831C90.9772 120.6 90.3913 120.317 90.0234 119.981C89.6589 119.643 89.4766 119.226 89.4766 118.731C89.4766 118.172 89.6995 117.709 90.1455 117.345C90.5947 116.977 91.1774 116.793 91.8936 116.793C92.3818 116.793 92.8164 116.887 93.1973 117.076C93.5814 117.265 93.8776 117.525 94.0859 117.857C94.2975 118.189 94.4033 118.552 94.4033 118.946H93.4609C93.4609 118.517 93.3242 118.18 93.0508 117.936C92.7773 117.688 92.3916 117.564 91.8936 117.564C91.4313 117.564 91.07 117.667 90.8096 117.872C90.5524 118.074 90.4238 118.355 90.4238 118.717C90.4238 119.007 90.5459 119.252 90.79 119.454C91.0374 119.653 91.4557 119.835 92.0449 120.001C92.6374 120.167 93.0996 120.351 93.4316 120.553C93.7669 120.751 94.0143 120.984 94.1738 121.251C94.3366 121.518 94.418 121.832 94.418 122.193C94.418 122.77 94.1934 123.232 93.7441 123.58C93.2949 123.925 92.6943 124.098 91.9424 124.098C91.4541 124.098 90.9984 124.005 90.5752 123.819C90.152 123.631 89.8249 123.373 89.5938 123.048C89.3659 122.722 89.252 122.353 89.252 121.939H90.1943C90.1943 122.369 90.3522 122.709 90.668 122.96C90.987 123.207 91.4118 123.331 91.9424 123.331C92.4372 123.331 92.8164 123.23 93.0801 123.028C93.3438 122.826 93.4756 122.551 93.4756 122.203C93.4756 121.855 93.3535 121.586 93.1094 121.397C92.8652 121.205 92.4225 121.017 91.7812 120.831ZM96.5615 121.217V124H95.624V116.891H98.2461C99.0241 116.891 99.6328 117.089 100.072 117.486C100.515 117.883 100.736 118.409 100.736 119.063C100.736 119.754 100.52 120.286 100.087 120.66C99.6572 121.031 99.0404 121.217 98.2363 121.217H96.5615ZM96.5615 120.45H98.2461C98.7474 120.45 99.1315 120.333 99.3984 120.099C99.6654 119.861 99.7988 119.519 99.7988 119.073C99.7988 118.65 99.6654 118.312 99.3984 118.058C99.1315 117.804 98.7653 117.672 98.2998 117.662H96.5615V120.45ZM105.951 120.714H102.87V123.233H106.449V124H101.933V116.891H106.4V117.662H102.87V119.947H105.951V120.714ZM111.635 120.714H108.554V123.233H112.133V124H107.616V116.891H112.084V117.662H108.554V119.947H111.635V120.714ZM113.3 124V116.891H115.307C115.925 116.891 116.472 117.027 116.947 117.301C117.423 117.574 117.789 117.963 118.046 118.468C118.306 118.972 118.438 119.552 118.441 120.206V120.66C118.441 121.331 118.311 121.918 118.051 122.423C117.794 122.927 117.424 123.315 116.942 123.585C116.464 123.855 115.906 123.993 115.268 124H113.3ZM114.237 117.662V123.233H115.224C115.946 123.233 116.508 123.009 116.908 122.56C117.312 122.11 117.514 121.471 117.514 120.641V120.226C117.514 119.418 117.323 118.792 116.942 118.346C116.565 117.896 116.028 117.669 115.331 117.662H114.237Z" fill="#5D646E"/>
<path d="M61.3301 78.3359V85.3599C61.3301 86.5269 60.9639 87.4497 60.2315 88.1284C59.5039 88.8071 58.5079 89.1465 57.2432 89.1465C55.9981 89.1465 55.0093 88.8169 54.2769 88.1577C53.5445 87.4985 53.1709 86.5928 53.1563 85.4404V78.3359H55.3536V85.3745C55.3536 86.0728 55.5196 86.583 55.8516 86.9053C56.1885 87.2227 56.6524 87.3813 57.2432 87.3813C58.4786 87.3813 59.106 86.7319 59.1255 85.4331V78.3359H61.3301ZM65.3291 85.2427V89H63.1319V78.3359H67.292C68.0928 78.3359 68.7959 78.4824 69.4014 78.7754C70.0118 79.0684 70.4805 79.4858 70.8077 80.0278C71.1348 80.5649 71.2984 81.1777 71.2984 81.8662C71.2984 82.9111 70.9395 83.7363 70.2217 84.3418C69.5088 84.9424 68.5201 85.2427 67.2554 85.2427H65.3291ZM65.3291 83.4629H67.292C67.8731 83.4629 68.315 83.3262 68.6177 83.0527C68.9253 82.7793 69.0791 82.3887 69.0791 81.8809C69.0791 81.3584 68.9253 80.936 68.6177 80.6138C68.3101 80.2915 67.8853 80.1255 67.3433 80.1157H65.3291V83.4629ZM75.0118 87.2349H79.6773V89H72.8145V78.3359H75.0118V87.2349ZM89.2354 83.9097C89.2354 84.9595 89.0498 85.8799 88.6788 86.6709C88.3077 87.4619 87.7754 88.0723 87.0821 88.502C86.3936 88.9316 85.6026 89.1465 84.709 89.1465C83.8252 89.1465 83.0367 88.9341 82.3433 88.5093C81.6499 88.0845 81.1128 87.479 80.732 86.6929C80.3511 85.9019 80.1582 84.9937 80.1534 83.9683V83.4409C80.1534 82.3911 80.3414 81.4683 80.7173 80.6724C81.0982 79.8716 81.6329 79.2588 82.3213 78.834C83.0147 78.4043 83.8057 78.1895 84.6944 78.1895C85.583 78.1895 86.3716 78.4043 87.0601 78.834C87.7535 79.2588 88.2881 79.8716 88.6641 80.6724C89.045 81.4683 89.2354 82.3887 89.2354 83.4336V83.9097ZM87.0088 83.4263C87.0088 82.3081 86.8086 81.4585 86.4082 80.8774C86.0079 80.2964 85.4366 80.0059 84.6944 80.0059C83.9571 80.0059 83.3882 80.2939 82.9878 80.8701C82.5874 81.4414 82.3848 82.2812 82.3799 83.3896V83.9097C82.3799 84.9985 82.5801 85.8433 82.9805 86.4438C83.3809 87.0444 83.9571 87.3447 84.709 87.3447C85.4463 87.3447 86.0127 87.0566 86.4082 86.4805C86.8038 85.8994 87.0039 85.0547 87.0088 83.9463V83.4263ZM96.6914 86.8027H92.8389L92.1065 89H89.7701L93.7398 78.3359H95.7759L99.7676 89H97.4312L96.6914 86.8027ZM93.4322 85.0229H96.0982L94.7579 81.0312L93.4322 85.0229ZM100.764 89V78.3359H104.045C104.982 78.3359 105.82 78.5483 106.557 78.9731C107.299 79.3931 107.878 79.9937 108.293 80.7749C108.708 81.5513 108.916 82.4351 108.916 83.4263V83.917C108.916 84.9082 108.71 85.7896 108.3 86.561C107.895 87.3325 107.321 87.9307 106.579 88.3555C105.837 88.7803 105 88.9951 104.067 89H100.764ZM102.961 80.1157V87.2349H104.023C104.882 87.2349 105.539 86.9541 105.993 86.3926C106.447 85.8311 106.679 85.0278 106.689 83.9829V83.4189C106.689 82.335 106.464 81.5146 106.015 80.958C105.566 80.3965 104.909 80.1157 104.045 80.1157H102.961ZM71.2349 99.1689C71.2349 98.8564 71.1242 98.6156 70.9029 98.4463C70.6848 98.277 70.2893 98.1061 69.7164 97.9336C69.1434 97.7611 68.6877 97.569 68.3492 97.3574C67.7014 96.9505 67.3775 96.4199 67.3775 95.7656C67.3775 95.1927 67.6102 94.7207 68.0757 94.3496C68.5445 93.9785 69.1516 93.793 69.897 93.793C70.3918 93.793 70.8329 93.8841 71.2203 94.0664C71.6076 94.2487 71.912 94.5091 72.1333 94.8477C72.3547 95.1829 72.4654 95.5557 72.4654 95.9658H71.2349C71.2349 95.5947 71.1177 95.305 70.8833 95.0967C70.6522 94.8851 70.3202 94.7793 69.8872 94.7793C69.4836 94.7793 69.1695 94.8656 68.9449 95.0381C68.7235 95.2106 68.6128 95.4515 68.6128 95.7607C68.6128 96.0212 68.7333 96.2393 68.9742 96.415C69.215 96.5876 69.6122 96.7568 70.1656 96.9229C70.719 97.0856 71.1633 97.2728 71.4986 97.4844C71.8339 97.6927 72.0796 97.9336 72.2359 98.207C72.3921 98.4772 72.4703 98.7946 72.4703 99.1592C72.4703 99.7516 72.2424 100.224 71.7867 100.575C71.3342 100.924 70.719 101.098 69.941 101.098C69.4266 101.098 68.953 101.003 68.5201 100.814C68.0904 100.622 67.7551 100.359 67.5142 100.023C67.2766 99.6882 67.1578 99.2975 67.1578 98.8516H68.3931C68.3931 99.2552 68.5266 99.5677 68.7935 99.7891C69.0604 100.01 69.4429 100.121 69.941 100.121C70.3706 100.121 70.6929 100.035 70.9078 99.8623C71.1259 99.6865 71.2349 99.4554 71.2349 99.1689ZM74.7896 98.3584V101H73.5542V93.8906H76.274C77.0682 93.8906 77.6981 94.0973 78.1636 94.5107C78.6324 94.9242 78.8667 95.471 78.8667 96.1514C78.8667 96.848 78.6372 97.39 78.1783 97.7773C77.7225 98.1647 77.0829 98.3584 76.2593 98.3584H74.7896ZM74.7896 97.3672H76.274C76.7134 97.3672 77.0487 97.2646 77.2798 97.0596C77.5109 96.8512 77.6265 96.5518 77.6265 96.1611C77.6265 95.777 77.5093 95.471 77.2749 95.2432C77.0406 95.012 76.7183 94.8932 76.3081 94.8867H74.7896V97.3672ZM84.106 97.8262H81.1861V100.014H84.5992V101H79.9507V93.8906H84.565V94.8867H81.1861V96.8496H84.106V97.8262ZM89.7603 97.8262H86.8404V100.014H90.2535V101H85.605V93.8906H90.2193V94.8867H86.8404V96.8496H89.7603V97.8262ZM91.2593 101V93.8906H93.3589C93.9872 93.8906 94.5438 94.0306 95.0289 94.3105C95.5171 94.5905 95.8947 94.9876 96.1617 95.502C96.4286 96.0163 96.5621 96.6055 96.5621 97.2695V97.626C96.5621 98.2998 96.427 98.8923 96.1568 99.4033C95.8899 99.9144 95.5074 100.308 95.0093 100.585C94.5145 100.862 93.9465 101 93.3052 101H91.2593ZM92.4947 94.8867V100.014H93.3003C93.9481 100.014 94.4445 99.8118 94.7896 99.4082C95.1379 99.0013 95.3153 98.4186 95.3218 97.6602V97.2646C95.3218 96.4932 95.1542 95.904 94.8189 95.4971C94.4836 95.0902 93.9969 94.8867 93.3589 94.8867H92.4947Z" fill="#5D646E"/>
<path d="M52.6285 55.0979H48.3951V38.7795L43.3414 40.3469V36.9045L52.1744 33.7405H52.6285V55.0979ZM69.4742 46.5725C68.3707 47.6565 67.0816 48.1985 65.607 48.1985C63.7223 48.1985 62.2135 47.554 61.0807 46.2649C59.9478 44.9661 59.3814 43.218 59.3814 41.0208C59.3814 39.6243 59.6842 38.345 60.2896 37.1829C60.9049 36.011 61.7594 35.1028 62.8531 34.4583C63.9469 33.804 65.1773 33.4768 66.5445 33.4768C67.9508 33.4768 69.2008 33.8284 70.2945 34.5315C71.3883 35.2346 72.2379 36.2454 72.8434 37.5637C73.4488 38.8821 73.7564 40.3909 73.7662 42.0901V43.6575C73.7662 47.2122 72.8824 50.0051 71.1148 52.0364C69.3473 54.0676 66.8424 55.1516 63.6002 55.2883L62.5602 55.303V51.7727L63.4977 51.7581C67.1793 51.592 69.1715 49.8635 69.4742 46.5725ZM66.6471 44.9612C67.3307 44.9612 67.9166 44.7854 68.4049 44.4338C68.9029 44.0823 69.2789 43.6575 69.5328 43.1594V41.4163C69.5328 39.9807 69.2594 38.8674 68.7125 38.0764C68.1656 37.2854 67.4332 36.8899 66.5152 36.8899C65.6656 36.8899 64.9674 37.2805 64.4205 38.0618C63.8736 38.8333 63.6002 39.8049 63.6002 40.9768C63.6002 42.1389 63.8639 43.0959 64.3912 43.8479C64.9283 44.5901 65.6803 44.9612 66.6471 44.9612ZM77.1939 53.0178C77.1939 52.344 77.4185 51.7971 77.8678 51.3772C78.3268 50.9573 78.898 50.7473 79.5816 50.7473C80.275 50.7473 80.8463 50.9573 81.2955 51.3772C81.7545 51.7971 81.984 52.344 81.984 53.0178C81.984 53.6819 81.7594 54.2239 81.3102 54.6438C80.8609 55.054 80.2848 55.259 79.5816 55.259C78.8883 55.259 78.317 55.054 77.8678 54.6438C77.4185 54.2239 77.1939 53.6819 77.1939 53.0178ZM85.6734 47.0569L86.6168 38.7463H95.7809V41.4529H89.2784L88.8741 44.968C89.6453 44.5562 90.4651 44.3503 91.3336 44.3503C92.8909 44.3503 94.1113 44.8333 94.9947 45.7991C95.8782 46.7649 96.3199 48.1163 96.3199 49.8533C96.3199 50.9089 96.0953 51.856 95.6461 52.6946C95.2044 53.5256 94.568 54.1733 93.7369 54.6375C92.9059 55.0942 91.9251 55.3225 90.7945 55.3225C89.8062 55.3225 88.8891 55.1241 88.0431 54.7273C87.197 54.323 86.5269 53.7577 86.0328 53.0315C85.5462 52.3053 85.2879 51.4779 85.2579 50.5496H88.4698C88.5372 51.2309 88.773 51.7625 89.1773 52.1443C89.5891 52.5186 90.1244 52.7058 90.7833 52.7058C91.517 52.7058 92.0823 52.4438 92.4791 51.9197C92.8759 51.3881 93.0743 50.6394 93.0743 49.6736C93.0743 48.7452 92.846 48.0339 92.3893 47.5398C91.9325 47.0457 91.2849 46.7986 90.4464 46.7986C89.6752 46.7986 89.0501 47.0007 88.5709 47.405L88.2564 47.697L85.6734 47.0569ZM109.516 40.5657L103.193 55.0979H99.7677L106.102 41.3743H97.9708V38.7463H109.516V40.5657Z" fill="#E4262C"/>
<path d="M57.9111 137H56.5V131.561L54.8154 132.083V130.936L57.7598 129.881H57.9111V137ZM63.5264 134.158C63.1585 134.52 62.7288 134.7 62.2373 134.7C61.609 134.7 61.1061 134.485 60.7285 134.056C60.3509 133.623 60.1621 133.04 60.1621 132.308C60.1621 131.842 60.263 131.416 60.4648 131.028C60.6699 130.638 60.9548 130.335 61.3193 130.12C61.6839 129.902 62.0941 129.793 62.5498 129.793C63.0186 129.793 63.4352 129.91 63.7998 130.145C64.1644 130.379 64.4476 130.716 64.6494 131.155C64.8512 131.595 64.9538 132.098 64.957 132.664V133.187C64.957 134.371 64.6624 135.302 64.0732 135.979C63.484 136.657 62.6491 137.018 61.5684 137.063L61.2217 137.068V135.892L61.5342 135.887C62.7614 135.831 63.4255 135.255 63.5264 134.158ZM62.584 133.621C62.8118 133.621 63.0072 133.562 63.1699 133.445C63.3359 133.328 63.4613 133.187 63.5459 133.021V132.439C63.5459 131.961 63.4548 131.59 63.2725 131.326C63.0902 131.062 62.846 130.931 62.54 130.931C62.2568 130.931 62.0241 131.061 61.8418 131.321C61.6595 131.578 61.5684 131.902 61.5684 132.293C61.5684 132.68 61.6562 132.999 61.832 133.25C62.0111 133.497 62.2617 133.621 62.584 133.621ZM66.0996 136.307C66.0996 136.082 66.1745 135.9 66.3242 135.76C66.4772 135.62 66.6676 135.55 66.8955 135.55C67.1266 135.55 67.3171 135.62 67.4668 135.76C67.6198 135.9 67.6963 136.082 67.6963 136.307C67.6963 136.528 67.6214 136.709 67.4717 136.849C67.3219 136.985 67.1299 137.054 66.8955 137.054C66.6644 137.054 66.474 136.985 66.3242 136.849C66.1745 136.709 66.0996 136.528 66.0996 136.307ZM69.0879 133.504L69.498 129.891H73.4824V131.067H70.6553L70.4795 132.596C70.8148 132.417 71.1712 132.327 71.5488 132.327C72.2259 132.327 72.7565 132.537 73.1406 132.957C73.5247 133.377 73.7168 133.965 73.7168 134.72C73.7168 135.179 73.6191 135.59 73.4238 135.955C73.2318 136.316 72.9551 136.598 72.5938 136.8C72.2324 136.998 71.806 137.098 71.3145 137.098C70.8848 137.098 70.486 137.011 70.1182 136.839C69.7503 136.663 69.459 136.417 69.2441 136.102C69.0326 135.786 68.9202 135.426 68.9072 135.022H70.3037C70.333 135.319 70.4355 135.55 70.6113 135.716C70.7904 135.879 71.0231 135.96 71.3096 135.96C71.6286 135.96 71.8743 135.846 72.0469 135.618C72.2194 135.387 72.3057 135.062 72.3057 134.642C72.3057 134.238 72.2064 133.929 72.0078 133.714C71.8092 133.499 71.5277 133.392 71.1631 133.392C70.8278 133.392 70.556 133.479 70.3477 133.655L70.2109 133.782L69.0879 133.504ZM79.4541 130.682L76.7051 137H75.2158L77.9697 131.033H74.4346V129.891H79.4541V130.682ZM84.918 129.891L86.7441 135.047L88.5605 129.891H90.4844V137H89.0146V135.057L89.1611 131.702L87.2422 137H86.2363L84.3223 131.707L84.4688 135.057V137H83.0039V129.891H84.918ZM91.7637 137V129.891H94.2539C95.1165 129.891 95.7708 130.057 96.2168 130.389C96.6628 130.717 96.8857 131.201 96.8857 131.839C96.8857 132.187 96.7962 132.495 96.6172 132.762C96.4382 133.025 96.1891 133.219 95.8701 133.343C96.2347 133.434 96.5212 133.618 96.7295 133.895C96.9411 134.171 97.0469 134.51 97.0469 134.91C97.0469 135.594 96.8288 136.111 96.3926 136.463C95.9564 136.814 95.3346 136.993 94.5273 137H91.7637ZM93.2285 133.904V135.823H94.4834C94.8285 135.823 95.097 135.742 95.2891 135.579C95.4844 135.413 95.582 135.185 95.582 134.896C95.582 134.244 95.2451 133.914 94.5713 133.904H93.2285ZM93.2285 132.869H94.3125C95.0514 132.856 95.4209 132.562 95.4209 131.985C95.4209 131.663 95.3265 131.432 95.1377 131.292C94.9521 131.149 94.6576 131.077 94.2539 131.077H93.2285V132.869ZM99.6152 134.495V137H98.1504V129.891H100.924C101.458 129.891 101.926 129.988 102.33 130.184C102.737 130.379 103.049 130.657 103.268 131.019C103.486 131.377 103.595 131.785 103.595 132.244C103.595 132.941 103.355 133.491 102.877 133.895C102.402 134.295 101.743 134.495 100.899 134.495H99.6152ZM99.6152 133.309H100.924C101.311 133.309 101.606 133.217 101.808 133.035C102.013 132.853 102.115 132.592 102.115 132.254C102.115 131.906 102.013 131.624 101.808 131.409C101.603 131.194 101.319 131.084 100.958 131.077H99.6152V133.309ZM108.292 135.135C108.292 134.858 108.194 134.646 107.999 134.5C107.804 134.35 107.452 134.194 106.944 134.031C106.437 133.865 106.035 133.702 105.738 133.543C104.931 133.107 104.527 132.519 104.527 131.78C104.527 131.396 104.635 131.054 104.85 130.755C105.068 130.452 105.379 130.216 105.782 130.047C106.189 129.878 106.645 129.793 107.149 129.793C107.657 129.793 108.11 129.886 108.507 130.071C108.904 130.254 109.212 130.512 109.43 130.848C109.651 131.183 109.762 131.564 109.762 131.99H108.297C108.297 131.665 108.194 131.412 107.989 131.233C107.784 131.051 107.496 130.96 107.125 130.96C106.767 130.96 106.489 131.036 106.29 131.189C106.091 131.339 105.992 131.538 105.992 131.785C105.992 132.016 106.108 132.21 106.339 132.366C106.573 132.522 106.917 132.669 107.369 132.806C108.202 133.056 108.81 133.367 109.19 133.738C109.571 134.109 109.762 134.572 109.762 135.125C109.762 135.74 109.529 136.224 109.063 136.575C108.598 136.924 107.971 137.098 107.184 137.098C106.637 137.098 106.139 136.998 105.689 136.8C105.24 136.598 104.897 136.323 104.659 135.975C104.425 135.626 104.308 135.223 104.308 134.764H105.777C105.777 135.548 106.246 135.94 107.184 135.94C107.532 135.94 107.804 135.87 107.999 135.73C108.194 135.587 108.292 135.389 108.292 135.135Z" fill="#5D646E"/>
<path d="M52.1153 60.1703L53.9414 65.3266L55.7578 60.1703H57.6817V67.2797H56.2119V65.3364L56.3584 61.9819L54.4395 67.2797H53.4336L51.5196 61.9868L51.666 65.3364V67.2797H50.2012V60.1703H52.1153ZM58.961 67.2797V60.1703H61.4512C62.3138 60.1703 62.9681 60.3364 63.4141 60.6684C63.8601 60.9972 64.083 61.4806 64.083 62.1186C64.083 62.4669 63.9935 62.7745 63.8145 63.0414C63.6354 63.3051 63.3864 63.4988 63.0674 63.6225C63.432 63.7136 63.7185 63.8976 63.9268 64.1743C64.1384 64.4509 64.2442 64.7895 64.2442 65.1899C64.2442 65.8735 64.0261 66.3911 63.5899 66.7426C63.1537 67.0942 62.5319 67.2732 61.7246 67.2797H58.961ZM60.4258 64.184V66.103H61.6807C62.0257 66.103 62.2943 66.0216 62.4864 65.8588C62.6817 65.6928 62.7793 65.4649 62.7793 65.1752C62.7793 64.5242 62.4424 64.1938 61.7686 64.184H60.4258ZM60.4258 63.1489H61.5098C62.2487 63.1358 62.6182 62.8412 62.6182 62.2651C62.6182 61.9428 62.5238 61.7117 62.335 61.5717C62.1494 61.4285 61.8548 61.3569 61.4512 61.3569H60.4258V63.1489ZM72.0674 65.2133C72.0674 65.8565 71.9203 66.3748 71.626 66.768C71.3317 67.1612 70.9333 67.3578 70.4307 67.3578C69.9177 67.3578 69.514 67.1951 69.2198 66.8696V68.9047H68.4971V63.0532H69.1573L69.1924 63.5219C69.4867 63.1573 69.8955 62.975 70.419 62.975C70.9268 62.975 71.3278 63.1664 71.6221 63.5493C71.919 63.9321 72.0674 64.4646 72.0674 65.1469V65.2133ZM71.3448 65.1313C71.3448 64.6547 71.2432 64.2784 71.0401 64.0024C70.8369 63.7263 70.5583 63.5883 70.2041 63.5883C69.7666 63.5883 69.4385 63.7823 69.2198 64.1703V66.1899C69.4359 66.5753 69.7666 66.768 70.2119 66.768C70.5583 66.768 70.833 66.6313 71.0362 66.3578C71.2419 66.0818 71.3448 65.673 71.3448 65.1313ZM74.7432 67.3578C74.1703 67.3578 73.7041 67.1703 73.3448 66.7953C72.9854 66.4177 72.8057 65.9138 72.8057 65.2836V65.1508C72.8057 64.7315 72.8851 64.3578 73.044 64.0297C73.2054 63.699 73.4294 63.4412 73.7159 63.2563C74.0049 63.0688 74.3174 62.975 74.6534 62.975C75.2028 62.975 75.6299 63.156 75.9346 63.518C76.2393 63.88 76.3916 64.3982 76.3916 65.0727V65.3735H73.5284C73.5388 65.7901 73.6599 66.1274 73.8916 66.3852C74.126 66.6404 74.4229 66.768 74.7823 66.768C75.0375 66.768 75.2536 66.7159 75.4307 66.6118C75.6078 66.5076 75.7627 66.3696 75.8955 66.1977L76.3369 66.5414C75.9828 67.0857 75.4515 67.3578 74.7432 67.3578ZM74.6534 63.5688C74.3617 63.5688 74.1169 63.6756 73.919 63.8891C73.7211 64.1 73.5987 64.3969 73.5518 64.7797H75.669V64.725C75.6481 64.3578 75.5492 64.074 75.3721 63.8735C75.195 63.6703 74.9554 63.5688 74.6534 63.5688ZM79.2744 63.7016C79.1651 63.6834 79.0466 63.6743 78.919 63.6743C78.445 63.6743 78.1234 63.8761 77.9541 64.2797V67.2797H77.2315V63.0532H77.9346L77.9463 63.5414C78.1833 63.1638 78.5192 62.975 78.9541 62.975C79.0948 62.975 79.2015 62.9933 79.2744 63.0297V63.7016ZM84.3877 66.1586C84.3877 65.9633 84.3135 65.8123 84.1651 65.7055C84.0192 65.5961 83.7627 65.5024 83.3955 65.4243C83.031 65.3461 82.7406 65.2524 82.5244 65.143C82.3109 65.0336 82.152 64.9034 82.0479 64.7524C81.9463 64.6013 81.8955 64.4217 81.8955 64.2133C81.8955 63.867 82.0414 63.574 82.333 63.3344C82.6273 63.0948 83.0023 62.975 83.458 62.975C83.9372 62.975 84.3252 63.0987 84.6221 63.3461C84.9216 63.5935 85.0713 63.9099 85.0713 64.2953H84.3448C84.3448 64.0974 84.2601 63.9269 84.0909 63.7836C83.9242 63.6404 83.7132 63.5688 83.458 63.5688C83.195 63.5688 82.9893 63.6261 82.8409 63.7407C82.6924 63.8552 82.6182 64.005 82.6182 64.1899C82.6182 64.3644 82.6872 64.4959 82.8252 64.5844C82.9632 64.673 83.2119 64.7576 83.5713 64.8383C83.9333 64.919 84.2263 65.0154 84.4502 65.1274C84.6742 65.2394 84.8395 65.3748 84.9463 65.5336C85.0557 65.6899 85.1104 65.8813 85.1104 66.1078C85.1104 66.4855 84.9593 66.7888 84.6573 67.018C84.3552 67.2446 83.9632 67.3578 83.4815 67.3578C83.1429 67.3578 82.8435 67.298 82.583 67.1782C82.3226 67.0584 82.1182 66.8917 81.9698 66.6782C81.8239 66.462 81.751 66.2289 81.751 65.9789H82.4737C82.4867 66.2211 82.583 66.4138 82.7627 66.5571C82.945 66.6977 83.1846 66.768 83.4815 66.768C83.7549 66.768 83.9737 66.7133 84.1377 66.6039C84.3044 66.492 84.3877 66.3435 84.3877 66.1586ZM87.8057 67.3578C87.2328 67.3578 86.7666 67.1703 86.4073 66.7953C86.0479 66.4177 85.8682 65.9138 85.8682 65.2836V65.1508C85.8682 64.7315 85.9476 64.3578 86.1065 64.0297C86.2679 63.699 86.4919 63.4412 86.7784 63.2563C87.0674 63.0688 87.3799 62.975 87.7159 62.975C88.2653 62.975 88.6924 63.156 88.9971 63.518C89.3018 63.88 89.4541 64.3982 89.4541 65.0727V65.3735H86.5909C86.6013 65.7901 86.7224 66.1274 86.9541 66.3852C87.1885 66.6404 87.4854 66.768 87.8448 66.768C88.1 66.768 88.3161 66.7159 88.4932 66.6118C88.6703 66.5076 88.8252 66.3696 88.958 66.1977L89.3994 66.5414C89.0453 67.0857 88.514 67.3578 87.8057 67.3578ZM87.7159 63.5688C87.4242 63.5688 87.1794 63.6756 86.9815 63.8891C86.7836 64.1 86.6612 64.3969 86.6143 64.7797H88.7315V64.725C88.7106 64.3578 88.6117 64.074 88.4346 63.8735C88.2575 63.6703 88.0179 63.5688 87.7159 63.5688ZM91.9893 66.768C92.2471 66.768 92.4724 66.6899 92.6651 66.5336C92.8578 66.3774 92.9645 66.1821 92.9854 65.9477H93.669C93.656 66.1899 93.5726 66.4203 93.419 66.6391C93.2653 66.8578 93.0596 67.0323 92.8018 67.1625C92.5466 67.2927 92.2757 67.3578 91.9893 67.3578C91.4138 67.3578 90.9554 67.1664 90.6143 66.7836C90.2757 66.3982 90.1065 65.8722 90.1065 65.2055V65.0844C90.1065 64.673 90.182 64.3071 90.333 63.9868C90.4841 63.6664 90.7002 63.4177 90.9815 63.2407C91.2653 63.0636 91.6 62.975 91.9854 62.975C92.4593 62.975 92.8526 63.117 93.1651 63.4008C93.4802 63.6847 93.6481 64.0532 93.669 64.5063H92.9854C92.9645 64.2328 92.8604 64.0089 92.6729 63.8344C92.488 63.6573 92.2588 63.5688 91.9854 63.5688C91.6182 63.5688 91.333 63.7016 91.1299 63.9672C90.9294 64.2302 90.8291 64.6118 90.8291 65.1118V65.2485C90.8291 65.7355 90.9294 66.1105 91.1299 66.3735C91.3304 66.6365 91.6169 66.768 91.9893 66.768ZM94.2901 65.1274C94.2901 64.7133 94.3708 64.3409 94.5323 64.0102C94.6963 63.6795 94.9229 63.4243 95.2119 63.2446C95.5036 63.0649 95.8356 62.975 96.208 62.975C96.7836 62.975 97.2484 63.1743 97.6026 63.5727C97.9593 63.9711 98.1377 64.5011 98.1377 65.1625V65.2133C98.1377 65.6248 98.0583 65.9946 97.8994 66.3227C97.7432 66.6482 97.5179 66.9021 97.2237 67.0844C96.932 67.2667 96.5961 67.3578 96.2159 67.3578C95.6429 67.3578 95.1781 67.1586 94.8213 66.7602C94.4672 66.3618 94.2901 65.8344 94.2901 65.1782V65.1274ZM95.0166 65.2133C95.0166 65.6821 95.1247 66.0584 95.3409 66.3422C95.5596 66.6261 95.8513 66.768 96.2159 66.768C96.583 66.768 96.8747 66.6248 97.0909 66.3383C97.307 66.0493 97.4151 65.6456 97.4151 65.1274C97.4151 64.6638 97.3044 64.2888 97.083 64.0024C96.8643 63.7133 96.5726 63.5688 96.208 63.5688C95.8513 63.5688 95.5635 63.7107 95.3448 63.9946C95.126 64.2784 95.0166 64.6847 95.0166 65.2133ZM99.7276 63.0532L99.751 63.5844C100.074 63.1782 100.496 62.975 101.017 62.975C101.91 62.975 102.36 63.4789 102.368 64.4868V67.2797H101.646V64.4828C101.643 64.1782 101.573 63.9529 101.435 63.8071C101.299 63.6612 101.087 63.5883 100.798 63.5883C100.564 63.5883 100.358 63.6508 100.181 63.7758C100.004 63.9008 99.8656 64.0649 99.7666 64.268V67.2797H99.044V63.0532H99.7276ZM103.282 65.1313C103.282 64.4828 103.436 63.962 103.743 63.5688C104.05 63.173 104.453 62.975 104.95 62.975C105.445 62.975 105.837 63.1443 106.126 63.4828V61.2797H106.849V67.2797H106.185L106.149 66.8266C105.86 67.1808 105.458 67.3578 104.942 67.3578C104.453 67.3578 104.053 67.1573 103.743 66.7563C103.436 66.3552 103.282 65.8318 103.282 65.186V65.1313ZM104.005 65.2133C104.005 65.6925 104.104 66.0675 104.302 66.3383C104.5 66.6092 104.773 66.7446 105.122 66.7446C105.58 66.7446 105.915 66.5388 106.126 66.1274V64.186C105.91 63.7875 105.578 63.5883 105.13 63.5883C104.776 63.5883 104.5 63.725 104.302 63.9985C104.104 64.2719 104.005 64.6769 104.005 65.2133Z" fill="#5D646E"/>
<circle cx="50.528" cy="119.689" r="5.96154" fill="url(#paint1_linear)"/>
<defs>
<linearGradient id="paint0_linear" x1="78.8322" y1="0" x2="78.8322" y2="152.832" gradientUnits="userSpaceOnUse">
<stop stop-color="#E4262C"/>
<stop offset="1" stop-color="#C4C4C4"/>
</linearGradient>
<linearGradient id="paint1_linear" x1="50.528" y1="113.727" x2="50.528" y2="125.65" gradientUnits="userSpaceOnUse">
<stop offset="0.78125" stop-color="#E4262C"/>
<stop offset="1" stop-color="#C4C4C4"/>
</linearGradient>
</defs>
</svg>
