<svg width="27" height="26" viewBox="0 0 27 26" fill="none" xmlns="http://www.w3.org/2000/svg">
<path d="M13.5 0.5C6.37776 0.5 0.583344 6.1075 0.583344 13C0.583344 19.8925 6.37776 25.5 13.5 25.5C20.6223 25.5 26.4167 19.8925 26.4167 13C26.4167 6.1075 20.6223 0.5 13.5 0.5ZM3.16668 13C3.16668 11.8763 3.36818 10.7975 3.72339 9.78875L5.75001 11.75L8.33334 14.25V16.75L10.9167 19.25L12.2083 20.5V22.9138C7.12047 22.295 3.16668 18.09 3.16668 13ZM21.6763 19.0913C20.8328 18.4338 19.5541 18 18.6667 18V16.75C18.6667 16.087 18.3945 15.4511 17.91 14.9822C17.4256 14.5134 16.7685 14.25 16.0833 14.25H10.9167V10.5C11.6018 10.5 12.2589 10.2366 12.7434 9.76777C13.2278 9.29893 13.5 8.66304 13.5 8V6.75H14.7917C15.4768 6.75 16.1339 6.48661 16.6184 6.01777C17.1028 5.54893 17.375 4.91304 17.375 4.25V3.73625C21.157 5.2225 23.8333 8.8125 23.8333 13C23.8331 15.2059 23.0742 17.3489 21.6763 19.0913Z" fill="#5D646E"/>
</svg>
