<svg width="72" height="56" viewBox="0 0 72 56" fill="none" xmlns="http://www.w3.org/2000/svg">
<rect y="37.5986" width="71.3994" height="15.5711" rx="7.78557" fill="#5D646E"/>
<circle cx="9.11481" cy="45.574" r="3.03827" fill="white"/>
<circle cx="21.2679" cy="45.574" r="1.13935" fill="white"/>
<circle cx="27.3445" cy="45.574" r="1.13935" fill="white"/>
<circle cx="24.3062" cy="45.574" r="1.13935" fill="white"/>
<rect x="35.6997" y="44.4347" width="30.3827" height="2.2787" rx="1.13935" fill="white"/>
<path d="M14.8116 17.6811C14.8116 16.5158 15.7562 15.5712 16.9215 15.5712C17.8537 15.5712 18.6094 16.3269 18.6094 17.2591V42.5358H14.8116V17.6811Z" fill="#5D646E"/>
<path d="M15.5712 1.26595C15.5712 0.566784 16.1379 0 16.8371 0C17.3964 0 17.8499 0.453427 17.8499 1.01276V26.9647H15.5712V1.26595Z" fill="#5D646E"/>
<path d="M54.922 18.2292C54.922 17.0639 55.8667 16.1193 57.0319 16.1193C57.9642 16.1193 58.7199 16.875 58.7199 17.8072V43.0839H54.922V18.2292Z" fill="#5D646E"/>
<path d="M55.6816 1.81404C55.6816 1.11488 56.2484 0.548096 56.9475 0.548096C57.5069 0.548096 57.9603 1.00152 57.9603 1.56085V27.5128H55.6816V1.81404Z" fill="#5D646E"/>
<path d="M29.5903 28.4607C30.3649 27.3716 31.3915 26.4861 32.5825 25.8796C33.7735 25.2732 35.0935 24.9639 36.4299 24.9781C37.7664 24.9923 39.0795 25.3296 40.2573 25.9612C41.4352 26.5928 42.4427 27.5 43.1941 28.6053L41.2632 29.9177C40.7236 29.1239 40 28.4724 39.154 28.0187C38.3081 27.5651 37.365 27.3229 36.4051 27.3127C35.4453 27.3025 34.4972 27.5246 33.6418 27.9602C32.7865 28.3957 32.0491 29.0317 31.4927 29.8139L29.5903 28.4607Z" fill="#5D646E"/>
<path d="M25.893 25.5451C27.0639 23.7695 28.6703 22.3236 30.559 21.3455C32.4477 20.3675 34.5556 19.8899 36.6814 19.9584C38.8073 20.027 40.88 20.6393 42.7018 21.737C44.5236 22.8346 46.0336 24.3809 47.0877 26.2283L44.6579 27.6147C43.8408 26.1827 42.6703 24.984 41.2581 24.1331C39.8459 23.2823 38.2392 22.8076 36.5913 22.7545C34.9435 22.7014 33.3095 23.0715 31.8454 23.8297C30.3814 24.5878 29.1361 25.7086 28.2285 27.0851L25.893 25.5451Z" fill="#5D646E"/>
<path d="M22.5416 22.7066C24.1457 20.2738 26.3466 18.2929 28.9342 16.953C31.5218 15.613 34.4097 14.9587 37.3221 15.0526C40.2346 15.1465 43.0743 15.9854 45.5703 17.4892C48.0662 18.9931 50.135 21.1116 51.579 23.6426L48.8925 25.1754C47.7104 23.1037 46.017 21.3695 43.974 20.1386C41.931 18.9076 39.6065 18.2209 37.2225 18.1441C34.8385 18.0672 32.4746 18.6028 30.3565 19.6996C28.2384 20.7964 26.4369 22.4179 25.1239 24.4092L22.5416 22.7066Z" fill="#5D646E"/>
</svg>
