<svg width="28" height="29" viewBox="0 0 28 29" fill="none" xmlns="http://www.w3.org/2000/svg">
<path fill-rule="evenodd" clip-rule="evenodd" d="M17.825 7.7354C18.4804 7.90534 19.0792 8.25551 19.5582 8.74889C20.0373 9.24226 20.3787 9.86052 20.5464 10.5383C20.6123 10.8473 20.7847 11.1208 21.0313 11.3075C21.2779 11.4942 21.5819 11.5813 21.8861 11.5525C22.1903 11.5237 22.474 11.3809 22.6838 11.151C22.8937 10.921 23.0153 10.6197 23.0259 10.3034C22.8249 8.99692 22.1947 7.80227 21.2419 6.92114C20.4199 5.95148 19.2867 5.32292 18.0518 5.1517C17.7176 5.15582 17.3985 5.29622 17.1636 5.54245C16.9287 5.78868 16.7969 6.12088 16.797 6.46704C16.7992 6.76928 16.9031 7.06127 17.0907 7.29277C17.2783 7.52426 17.538 7.68078 17.825 7.7354ZM0.725694 24.6312C0.353788 25.1252 0.170299 25.7437 0.210165 26.3688C0.250032 26.9939 0.510469 27.582 0.941886 28.021C1.3733 28.4601 1.94557 28.7196 2.54972 28.7499C3.15386 28.7803 3.74769 28.5795 4.21813 28.1857L11.3693 20.7948C13.6465 22.236 16.3561 22.7593 18.9818 22.2649C21.6075 21.7705 23.9658 20.2931 25.6075 18.1139C27.2493 15.9348 28.0597 13.2063 27.8844 10.4482C27.7091 7.69017 26.5603 5.09527 24.6569 3.15786C22.7535 1.22046 20.2284 0.0759527 17.5628 -0.0576346C14.8972 -0.191222 12.2773 0.695449 10.2022 2.43347C8.12706 4.17148 6.74175 6.63939 6.31015 9.36704C5.87855 12.0947 6.43082 14.8915 7.86176 17.2246L0.725694 24.6312ZM9.32828 11.2743C9.32828 9.67931 9.78493 8.12017 10.6405 6.79401C11.496 5.46785 12.7121 4.43424 14.1348 3.82387C15.5576 3.21351 17.1231 3.05381 18.6335 3.36497C20.1438 3.67613 21.5312 4.44418 22.6201 5.57198C23.709 6.69979 24.4506 8.1367 24.751 9.70101C25.0515 11.2653 24.8973 12.8868 24.3079 14.3603C23.7186 15.8339 22.7207 17.0933 21.4402 17.9795C20.1598 18.8656 18.6544 19.3385 17.1145 19.3385C15.0494 19.3385 13.069 18.4889 11.6088 16.9766C10.1486 15.4642 9.32828 13.413 9.32828 11.2743Z" fill="#3D6BA6"/>
</svg>
